<?xml version="1.0" standalone="no"?>
<!DOCTYPE svg PUBLIC "-//W3C//DTD SVG 20010904//EN"
 "http://www.w3.org/TR/2001/REC-SVG-20010904/DTD/svg10.dtd">
<svg version="1.0" xmlns="http://www.w3.org/2000/svg"
 width="700.000000pt" height="700.000000pt" viewBox="0 0 700.000000 700.000000"
 preserveAspectRatio="xMidYMid meet">
<metadata>
Created by potrace 1.14, written by Peter Selinger 2001-2017
</metadata>
<g transform="translate(0.000000,700.000000) scale(0.100000,-0.100000)"
fill="#000000" stroke="none">
<path d="M2630 6986 l-64 -11 -211 -289 c-149 -205 -218 -292 -235 -297 -14
-4 -72 -17 -130 -29 -116 -25 -181 -53 -223 -98 l-28 -29 52 -22 c69 -30 131
-35 267 -22 l114 11 291 -221 292 -221 69 7 c37 3 74 9 81 11 9 4 -46 79 -156
216 -131 163 -169 216 -169 238 0 18 7 33 18 38 9 5 94 24 189 43 l172 33 88
-68 88 -68 55 7 c30 4 57 9 59 11 2 2 -26 49 -62 104 l-67 100 35 108 c19 60
35 112 35 116 0 6 -36 3 -96 -9 -11 -3 -50 -42 -87 -89 -77 -96 -49 -86 -300
-107 -152 -12 -167 -9 -167 42 0 22 165 465 187 502 5 9 -16 8 -97 -7z"/>
<path d="M3309 6573 c-34 -4 -36 -7 -56 -68 l-21 -63 25 -42 c21 -35 29 -40
51 -36 103 20 316 31 622 31 300 -1 367 -4 509 -23 180 -24 201 -34 271 -122
111 -140 114 -310 8 -488 -48 -81 -198 -234 -312 -319 -430 -321 -1127 -563
-1841 -639 -213 -22 -574 -22 -750 0 -229 30 -439 89 -569 162 -23 13 -68 45
-101 71 -232 188 -220 455 35 727 l65 70 -65 -49 c-161 -122 -492 -484 -612
-670 -249 -385 -101 -731 397 -933 255 -103 574 -158 980 -169 1231 -33 2693
440 3320 1073 212 214 315 441 288 631 -21 147 -118 288 -270 391 -164 111
-502 258 -786 341 -345 101 -490 122 -857 126 -162 1 -311 1 -331 -2z"/>
<path d="M4152 4297 c-115 -49 -140 -63 -130 -73 7 -7 200 -146 428 -309 228
-164 430 -311 449 -329 63 -59 72 -116 24 -158 -22 -21 -646 -328 -664 -328
-7 0 -109 34 -228 76 l-214 76 -101 -43 c-56 -23 -104 -45 -108 -49 -5 -3 80
-78 187 -165 l195 -160 0 -249 c0 -194 3 -247 13 -243 6 2 58 24 114 48 l102
43 30 80 c16 45 50 140 76 212 l47 131 341 122 c188 67 356 121 373 121 17 0
43 -9 57 -20 51 -40 51 -52 0 -622 -25 -290 -44 -530 -41 -533 9 -10 297 117
303 134 4 9 114 311 245 671 131 360 242 663 245 673 4 10 95 62 214 122 239
120 307 162 378 236 53 55 126 166 118 179 -10 16 -136 35 -230 34 -114 0
-194 -21 -483 -125 l-164 -59 -56 24 c-190 79 -1360 546 -1368 545 -5 0 -73
-28 -152 -62z"/>
<path d="M52 3875 c-41 -241 -47 -307 -47 -565 0 -286 5 -318 65 -445 132
-275 465 -479 994 -610 705 -174 1676 -175 2586 -4 58 11 113 22 123 25 18 6
18 18 12 237 l-7 232 -67 70 c-36 39 -114 121 -174 183 l-107 113 -155 -30
c-189 -37 -452 -74 -685 -98 -246 -24 -831 -25 -1047 0 -733 83 -1213 301
-1382 626 -52 101 -71 170 -79 293 l-7 103 -23 -130z"/>
<path d="M6972 3088 c-18 -77 -90 -220 -163 -322 -74 -104 -227 -261 -349
-359 -106 -86 -362 -256 -500 -332 -1093 -608 -2761 -928 -4060 -779 -448 51
-858 168 -1122 318 -43 25 -78 43 -78 40 0 -35 167 -327 250 -439 102 -137
136 -171 212 -211 297 -158 635 -249 1118 -301 205 -22 798 -25 1020 -5 896
79 1707 288 2375 611 641 310 1028 651 1160 1021 64 180 122 449 146 676 13
127 10 159 -9 82z"/>
<path d="M4643 677 l-33 -12 118 -100 c69 -59 118 -109 120 -121 3 -18 -10
-27 -88 -58 -49 -20 -97 -36 -106 -36 -8 0 -37 9 -63 20 -38 17 -53 19 -76 10
l-28 -11 43 -44 42 -43 -4 -66 -4 -65 26 6 c38 9 40 11 65 67 l23 52 103 28
c140 37 138 40 105 -142 -14 -77 -26 -145 -26 -150 0 -7 16 -5 43 4 l43 15 85
184 84 185 68 27 c77 31 145 83 133 101 -10 17 -89 15 -171 -4 l-70 -17 -182
92 c-101 50 -191 91 -200 90 -10 0 -33 -6 -50 -12z"/>
<path d="M1685 526 c124 -111 371 -226 695 -325 478 -145 830 -192 1284 -169
250 12 627 60 779 99 36 10 37 11 37 57 0 38 -7 58 -36 101 -42 62 -18 60
-245 17 -450 -84 -1029 -100 -1499 -40 -326 41 -683 133 -930 239 -117 50
-119 51 -85 21z"/>
</g>
</svg>
